<?xml version="1.0" standalone="no"?>
<!DOCTYPE svg PUBLIC "-//W3C//DTD SVG 20010904//EN"
 "http://www.w3.org/TR/2001/REC-SVG-20010904/DTD/svg10.dtd">
<svg version="1.0" xmlns="http://www.w3.org/2000/svg"
 width="500.000000pt" height="500.000000pt" viewBox="0 0 500.000000 500.000000"
 preserveAspectRatio="xMidYMid meet">
<metadata>
Created by potrace 1.16, written by Peter Selinger 2001-2019
</metadata>
<g transform="translate(0.000000,500.000000) scale(0.100000,-0.100000)"
fill="#000000" stroke="none">
<path d="M2370 3215 l0 -115 30 0 c29 0 29 1 32 61 l3 62 34 -62 c32 -56 38
-61 68 -61 l33 0 0 115 0 115 -34 0 -35 0 -3 -52 -3 -52 -28 52 c-26 47 -31
52 -63 52 l-34 0 0 -115z"/>
<path d="M2586 3306 c-9 -34 -8 -36 25 -36 l32 0 -6 -90 -6 -90 35 0 c32 0 34
2 34 33 0 17 3 56 6 85 6 49 8 52 35 52 24 0 29 4 29 25 0 31 -4 32 -102 38
-71 4 -77 2 -82 -17z"/>
<path d="M2197 3313 l-39 -4 5 -97 c3 -53 3 -87 1 -74 -7 29 -64 33 -64 3 0
-12 -9 -21 -26 -25 -15 -4 -28 -5 -30 -3 -8 8 -24 110 -18 118 9 15 54 10 54
-6 0 -15 26 -20 53 -9 20 7 9 52 -18 70 -28 18 -121 3 -148 -25 -17 -16 -17
-25 -7 -82 16 -99 18 -103 39 -116 28 -17 139 4 152 29 12 22 29 23 29 2 0
-14 8 -16 53 -10 28 3 67 6 85 6 29 0 32 3 32 31 l0 31 -55 -7 c-51 -6 -55 -5
-55 14 0 18 6 21 45 21 43 0 45 1 45 30 l0 29 -50 -6 c-42 -5 -50 -3 -50 11 0
10 8 16 24 16 13 0 38 3 55 6 25 5 31 11 29 28 -3 18 -10 21 -53 22 -27 1 -67
-1 -88 -3z"/>
<path d="M2781 3213 c-7 -54 -14 -106 -17 -115 -4 -15 1 -18 29 -18 32 0 35 3
41 36 5 26 11 34 22 30 9 -3 17 -6 19 -6 3 0 9 -17 15 -38 9 -37 12 -39 67
-49 52 -10 59 -9 73 8 21 26 72 13 80 -22 4 -16 14 -25 30 -27 14 -2 34 -7 45
-12 30 -13 148 -50 151 -47 1 1 5 14 9 28 6 24 3 27 -39 39 -25 7 -46 15 -46
19 0 3 11 40 24 81 14 41 21 78 18 82 -4 4 -19 9 -33 13 -25 6 -26 3 -54 -89
-15 -53 -31 -96 -35 -96 -5 0 -10 47 -12 104 -1 57 -6 107 -9 110 -3 3 -26 9
-50 12 l-44 6 -49 -86 c-26 -47 -51 -84 -56 -81 -14 9 -18 54 -5 59 19 7 29
84 15 111 -10 19 -26 25 -87 34 -40 6 -77 11 -82 11 -4 0 -13 -44 -20 -97z"/>
<path d="M1856 3252 c-3 -5 1 -33 9 -63 l14 -54 -42 49 c-41 47 -45 49 -81 42
-33 -6 -37 -10 -32 -29 3 -12 16 -61 28 -109 23 -89 30 -98 71 -82 13 5 13 12
1 57 -8 29 -14 55 -14 59 0 4 21 -16 47 -43 41 -44 51 -50 77 -45 16 4 31 7
32 9 1 1 -10 49 -25 107 -26 97 -30 105 -53 108 -15 2 -29 -1 -32 -6z"/>
<path d="M1638 3192 c-48 -15 -58 -31 -39 -60 4 -8 12 -13 17 -12 12 2 47
-104 35 -108 -6 -2 -8 -17 -4 -33 5 -25 2 -29 -16 -29 -12 0 -29 -4 -39 -9 -9
-5 -44 -17 -77 -27 -33 -10 -64 -21 -70 -25 -5 -4 -12 -8 -15 -8 -3 -1 -16 -4
-29 -8 l-24 -6 6 -174 5 -173 -41 -39 c-23 -22 -63 -50 -89 -62 -31 -14 -48
-29 -48 -40 0 -10 -8 -22 -17 -28 -16 -8 -18 -27 -18 -164 0 -134 2 -158 20
-191 23 -43 43 -50 125 -44 48 3 64 9 84 31 l25 27 218 0 218 0 17 -30 c9 -17
24 -30 33 -30 8 0 15 -4 15 -10 0 -6 28 -10 65 -10 63 0 107 15 127 45 12 16
429 7 449 -11 8 -8 23 -14 32 -14 9 0 19 -4 22 -10 3 -5 41 -10 84 -10 78 0
125 14 142 42 12 19 446 12 466 -8 8 -8 21 -14 29 -14 8 0 14 -4 14 -10 0 -15
123 -12 152 3 14 7 33 20 42 30 14 14 36 17 121 17 64 0 106 4 111 11 3 6 -3
24 -15 40 -11 15 -21 35 -21 44 0 8 -4 15 -10 15 -6 0 -10 28 -10 64 0 59 -14
94 -50 126 -3 3 -20 24 -39 48 -18 23 -39 42 -46 42 -7 0 -15 3 -17 8 -1 4
-19 14 -38 23 l-35 16 6 79 c3 44 7 142 8 219 l2 141 -36 17 c-20 9 -42 17
-50 17 -9 0 -23 4 -33 9 -27 15 -153 51 -179 51 -13 0 -23 4 -23 9 0 5 -27 12
-60 16 -33 4 -62 11 -65 15 -3 4 -37 11 -77 15 -40 4 -79 11 -88 16 -40 23
-605 49 -645 30 -11 -5 -73 -12 -138 -16 -65 -3 -126 -10 -135 -15 -10 -4 -51
-13 -92 -19 -41 -6 -89 -14 -106 -17 -28 -5 -32 -3 -38 21 -4 16 -12 25 -20
22 -17 -7 -52 99 -38 116 8 10 -1 59 -10 56 -2 0 -24 -8 -50 -17z m1076 -251
c3 -4 52 -11 108 -15 56 -4 107 -11 113 -15 5 -5 39 -12 75 -16 36 -4 70 -11
75 -15 6 -4 34 -11 62 -15 29 -4 55 -11 58 -15 3 -5 27 -12 53 -16 26 -4 49
-10 52 -13 3 -4 23 -11 45 -16 l40 -10 3 -120 c2 -66 0 -142 -3 -170 l-6 -50
-87 3 c-52 2 -91 8 -97 15 -12 14 -78 53 -117 70 -16 6 -28 15 -28 19 0 4 -16
10 -35 14 -19 3 -35 10 -35 14 0 5 -19 11 -42 15 -24 4 -48 11 -54 16 -6 5
-56 12 -110 16 -55 3 -104 9 -109 14 -25 19 -372 -8 -400 -31 -18 -15 -91 -15
-109 -1 -27 23 -413 51 -450 32 -12 -5 -50 -12 -85 -15 -35 -3 -69 -10 -75
-15 -6 -5 -21 -12 -33 -15 -23 -7 -23 -6 -23 87 l0 95 31 11 c18 6 40 11 50
11 11 0 19 4 19 9 0 5 22 12 50 16 27 4 52 11 55 15 3 5 30 12 60 15 31 4 58
11 60 15 3 5 36 12 73 15 37 4 72 11 77 15 6 5 53 11 105 15 52 4 102 11 110
16 20 11 517 12 524 0z m-1013 -388 c33 -16 89 -69 89 -85 0 -11 -32 -17 -113
-21 l-68 -4 7 41 c3 23 10 43 15 44 5 2 9 12 9 23 0 23 17 24 61 2z m403 8 c3
-5 31 -12 61 -16 30 -3 55 -10 55 -15 0 -5 16 -12 35 -16 19 -3 35 -10 35 -14
0 -5 8 -11 18 -13 18 -5 -141 -9 -297 -8 -78 0 -96 4 -106 18 -7 10 -22 29
-34 42 -12 13 -21 26 -21 28 0 8 249 2 254 -6z m786 -11 c30 -7 57 -16 60 -20
3 -4 18 -10 34 -14 16 -4 39 -14 50 -22 18 -13 9 -14 -94 -15 -284 -3 -320 0
-320 25 0 7 -9 21 -20 31 -11 10 -20 22 -20 27 0 13 245 3 310 -12z m-1016
-95 c4 -14 11 -25 17 -25 6 0 7 -5 3 -11 -10 -16 15 -29 58 -29 20 0 40 -4 43
-10 3 -5 23 -10 44 -10 58 0 97 -18 123 -55 36 -53 114 -81 253 -91 39 -3 79
-10 90 -15 11 -5 47 -10 80 -13 33 -2 -21 -2 -119 1 -99 2 -184 7 -190 12 -6
5 -45 12 -86 16 -80 7 -100 16 -100 45 0 10 -14 32 -31 49 -39 39 -93 42 -132
8 -15 -12 -27 -28 -27 -34 0 -6 -5 -13 -11 -15 -5 -2 -13 -24 -15 -48 -11 -91
-8 -90 -171 -90 -120 0 -143 -2 -143 -15 0 -12 14 -15 63 -15 124 0 227 -12
227 -26 0 -11 -37 -14 -187 -14 l-188 0 -1 89 -1 88 189 6 c189 5 218 11 218
43 0 11 -33 14 -172 14 -94 0 -169 2 -167 5 3 2 54 5 114 5 122 2 165 7 165
21 0 5 -15 9 -32 9 -18 0 -40 5 -48 11 -11 8 6 9 62 6 83 -6 103 2 63 23 -18
10 -22 17 -14 26 5 6 7 24 3 38 -3 15 -2 26 4 26 5 0 13 -11 16 -25z m731 -45
c6 -4 36 -11 68 -14 31 -4 57 -11 57 -16 0 -4 12 -12 28 -16 18 -6 -34 -11
-158 -14 -133 -4 -189 -2 -200 7 -8 6 -49 15 -90 18 -41 4 -79 11 -85 15 -5 4
-39 10 -75 14 -183 20 -155 24 135 19 171 -3 315 -9 320 -13z m750 0 c6 -4 36
-11 68 -14 31 -4 57 -11 57 -15 0 -4 12 -12 28 -18 21 -8 -17 -11 -170 -12
-110 -1 -199 3 -202 8 -4 5 -41 12 -84 16 -42 4 -81 11 -87 15 -5 4 -45 10
-88 14 -43 4 -88 11 -100 16 -14 6 85 8 273 4 162 -4 300 -10 305 -14z"/>
<path d="M1496 2221 c-3 -5 2 -19 12 -30 16 -21 24 -22 182 -19 l165 3 0 25 0
25 -177 3 c-100 1 -179 -2 -182 -7z"/>
<path d="M1675 1820 c-7 -39 -7 -40 -50 -40 -42 0 -43 0 -54 -44 -6 -25 -11
-47 -11 -50 0 -3 18 -6 39 -6 l40 0 -10 -32 c-15 -55 -13 -58 41 -58 l50 0 11
45 c10 41 14 45 41 45 23 0 28 -4 24 -17 -3 -10 -8 -31 -12 -46 l-6 -28 52 3
c53 3 53 3 64 43 11 38 14 40 53 43 39 3 42 6 50 40 6 27 15 38 31 40 27 4 27
4 2 -83 -11 -38 -20 -73 -20 -78 0 -4 356 -6 792 -5 l792 3 38 120 c21 66 38
126 38 133 0 9 -173 12 -830 12 l-829 0 -11 -40 c-9 -35 -14 -40 -40 -40 -28
0 -28 1 -19 32 14 49 13 49 -43 46 -51 -3 -52 -4 -61 -40 -8 -33 -13 -38 -39
-38 -26 0 -29 3 -23 23 18 61 20 57 -38 57 l-55 0 -7 -40z"/>
</g>
</svg>
